{"title":"Percy Jackson &amp; the Olympians The Lightning Thief DVDRip XviD AC","uid":5759545,"size":1505121591,"categoryP":"video","categoryS":"movies","magnet":"?xt=urn:btih:e35fa09dbdb07478335c521c50cb311520532056&amp;dn=Percy+Jackson+%26+the+Olympians+The+Lightning+Thief+DVDRip+XviD+AC&amp;tr=udp%3A%2F%2Ftracker.openbittorrent.com%3A80&amp;tr=udp%3A%2F%2Fopen.demonii.com%3A1337&amp;tr=udp%3A%2F%2Ftracker.coppersurfer.tk%3A6969&amp;tr=udp%3A%2F%2Fexodus.desync.com%3A6969","seeders":0,"leechers":0,"uploader":"TvTeam","files":5,"time":1281682295,"description":". \n  &lt;a href=&quot;\nhttp://www.torrentday.com/&quot; rel=&quot;nofollow&quot; target=&quot;_NEW&quot;&gt;\nhttp://www.torrentday.com/&lt;/a&gt;        :     The Hottest Private Tracker On The Net!!!\n\n\n               www . TorrentDay . Com \n(((((((((((((= Enjoy No RAR releases =))))))))))))))))))))\n\n\n...................................NFO:....................................\n\n\n\n[b]Percy Jackson &amp; the Olympains: The Lightning Thief 2010 DVDRip AC3-LEGi0N  \n\n[img]http://leetleech.org/images/48874973695367351744.png[/img][b]\n[color=red]General[/color]\nFormat:AVI \nFile Size: 1.37 GiB\nDuration: 1h 22mn\nOverall bit rate: 1 750 Kbps\nIMDB Rating: 5.8/10   18 324 votes\nGenre: Adventure : Fantasy      \nIMDb Link: http://www.imdb.com/title/tt0814255/\nSource: PAL DVDR-DiSHON  \n\n[color=red]Video[/color]\nFormat: MPEG-4 Visual\nFormat profile: Advanced Simple@L5\nFormat settings, BVOP: Yes\nFormat settings, QPel: No         \nFormat settings, GMC:  No warpoints\nFormat settings, Matrix: Default (H.263)\nMuxing mode: Packed bitstream\nCodec ID: XVID\nBit rate: 1 292Kbps\nWidth: 720 pixels\nHeight: 304 pixels\nDAR: 2.35:1\nFrame rate 25.000 fps\nResolution: 8 bits\nColorimetry: 4:2:0\nScan Type: Progressive\nBits/(Pixel*Frame): 0.236\nStream size: 1 03 GiB (74%)\n\n[color=red]Audio[/color]\nFormat: AC-3\nBit rate mode: Constant\nBit rate: 448 Kbps\nChannel(s): 6 channels\nSampling rate: 48.0 KHz\nStream size: 365 MiB (26%) \n\n[img]http://leetleech.org/images/89524873606771859129.png[/img]\n A teenager discovers he's the descendant of a Greek god and sets\nout on an adventure to settle an on-going battle between gods.  \n                                   \n[color=red]Tagline:[/color]\nN/A                                                        \n\n[img]http://leetleech.org/images/84434050717770922575.png[/img]\nLogan lerman   ...  Percy Jackson           \nBrandon Jackson ..  Grover Underwood\nAlexandra Daddario  Annabeth       \nJake Abel      ...  Luke       \nSean Bean      ...  Zeus    \nPierce Brosnan ...  Mr. Brunner/Chiron\nSteve Coogan   ...  Hades       \n\n[color=red]GREETZ[/color]\nNoir | xXTHORNXx | bigimac | LUSi |\n\nkempas | KaN1vE | mike160 | skillz |\n\nLungbuster | Sheikh | DiLLoN1369  |\n\n0B5C3N3 | FLAWL3SS | AND ALL P2P![/b]\n[color=red]SAMPLE INCLUDED[/color]\n[img]http://leetleech.org/images/95521316153253938506.png[/img]\n\n\n\n[img]http://i25.timypic.com/281rhgj.jpg[/img]\n[center][img]http://leetleech.org/images/12755021538703799215.png[/img][/center]","torrent":{"xt":"urn:btih:e35fa09dbdb07478335c521c50cb311520532056","amp;dn":"Percy+Jackson+%26+the+Olympians+The+Lightning+Thief+DVDRip+XviD+AC","amp;tr":["udp%3A%2F%2Ftracker.openbittorrent.com%3A80","udp%3A%2F%2Fopen.demonii.com%3A1337","udp%3A%2F%2Ftracker.coppersurfer.tk%3A6969","udp%3A%2F%2Fexodus.desync.com%3A6969"],"infoHash":"e35fa09dbdb07478335c521c50cb311520532056","infoHashBuffer":{"type":"Buffer","data":[227,95,160,157,189,176,116,120,51,92,82,28,80,203,49,21,32,83,32,86]},"announce":[],"urlList":[]}}